<svg xmlns="http://www.w3.org/2000/svg" xmlns:svg="http://www.w3.org/2000/svg" xmlns:xhtml="http://www.w3.org/1999/xhtml" xmlns:xlink="http://www.w3.org/1999/xlink" width="256" height="256" version="1.1" viewBox="-30 -20 256 256"><path id="path4224" fill="url(#radial-gradient)" stroke-width=".25" d="m 184.16385,19.44753 c -8.00992,4.503009 -15.99589,18.291973 -15.73106,35.313313 0.26483,17.021339 10.18962,16.957729 10.09287,34.181619 -0.12518,22.727838 -13.30591,48.522628 -13.30591,48.522628 0,0 -0.46714,28.19271 15.24234,3.78309 31.52681,-45.113628 -0.7769,-109.495609 3.70176,-121.80065 z"/><g id="Page-1" fill="none" fill-rule="evenodd" stroke="none" stroke-width="1" transform="translate(-1.0271406,-0.82702379)"><g id="mark" transform="translate(1,1)"><path id="Left---green" fill="#06f" d="M 0.02714063,45.458544 45.223647,-0.17297621 45.223646,211.99833 0.02714063,166.89384 Z"/><path id="Right---blue" fill="#fc0" fill-opacity="0" d="M 129.33671,45.889361 175.15234,-0.14833204 174.22365,211.99833 129.02714,166.89384 Z" transform="matrix(-1,0,0,1,304,0)"/><path id="Cross---blue" fill="url(#linearGradient9466)" fill-opacity="1" d="M 45.193511,-0.13667814 162.69969,179.17338 129.81792,212.05433 12.250244,33.141173 Z"/><path id="Shadow" fill="#00002b" fill-opacity=".13" d="m 45.233948,83.032105 -0.0625,7.0625 -36.2805789,-53.5625 3.3593749,-3.422181 z"/></g></g><title id="title4258">Firenvim</title><defs id="defs4275"><linearGradient id="linearGradient9464"><stop id="stop9460" offset="0" stop-color="#f60" stop-opacity="1"/><stop id="stop9462" offset="1" stop-color="#f60" stop-opacity="0"/></linearGradient><linearGradient id="linearGradient-1" x1="49.022" x2="49.022" y1="-.08" y2="97.846" gradientTransform="scale(0.46153975,2.1666606)" gradientUnits="userSpaceOnUse"><stop id="stop4260" offset="0%" stop-color="#16B0ED" stop-opacity=".8"/><stop id="stop4262" offset="100%" stop-color="#0F59B2" stop-opacity=".837"/></linearGradient><linearGradient id="linearGradient-2" x1="326.174" x2="326.174" y1="-.069" y2="98.852" gradientTransform="scale(0.46628455,2.1446132)" gradientUnits="userSpaceOnUse"><stop id="stop4265" offset="0%" stop-color="#7DB643"/><stop id="stop4267" offset="100%" stop-color="#367533"/></linearGradient><linearGradient id="linearGradient-3" x1="103.885" x2="103.885" y1="-.115" y2="178.558" gradientTransform="scale(0.84203823,1.1875945)" gradientUnits="userSpaceOnUse"><stop id="stop4270" offset="0%" stop-color="#88C649" stop-opacity=".8"/><stop id="stop4272" offset="100%" stop-color="#439240" stop-opacity=".84"/></linearGradient><radialGradient id="radial-gradient-7" cx="1237.426" cy="-137.382" r="923.615" fx="1237.426" fy="-137.382" gradientTransform="matrix(0.19660386,0.08550504,-0.07155795,0.23492316,28.954236,-58.775742)" gradientUnits="userSpaceOnUse"><stop id="stop4119" offset=".279" stop-color="#ffea00"/><stop id="stop4121" offset=".402" stop-color="#fd0"/><stop id="stop4123" offset=".63" stop-color="#ffba00"/><stop id="stop4125" offset=".856" stop-color="#ff9100"/><stop id="stop4127" offset=".933" stop-color="#ff6711"/><stop id="stop4129" offset=".994" stop-color="#ff4a1d"/></radialGradient><radialGradient id="radial-gradient" cx="-14480.522" cy="-8329.079" r="450.875" fx="-14509.281" gradientTransform="matrix(0.17610427,0.07314222,-0.1075118,0.25883868,1857.9458,3282.5928)" gradientUnits="userSpaceOnUse"><stop id="stop4028" offset=".045" stop-color="#ffea00"/><stop id="stop4030" offset=".12" stop-color="#ffde00"/><stop id="stop4032" offset=".254" stop-color="#ffbf00"/><stop id="stop4034" offset=".429" stop-color="#ff8e00"/><stop id="stop4036" offset=".769" stop-color="#ff272d"/><stop id="stop4038" offset=".872" stop-color="#e0255a"/><stop id="stop4040" offset=".953" stop-color="#cc2477"/><stop id="stop4042" offset="1" stop-color="#c42482"/></radialGradient><linearGradient id="linear-gradient-6" x1="655.531" x2="961.187" y1="38.12" y2="721.615" gradientTransform="matrix(0.20326748,0.08550504,-0.07398332,0.23492316,28.1824,-63.402271)" gradientUnits="userSpaceOnUse"><stop id="stop4176" offset="0" stop-color="#fff14f"/><stop id="stop4178" offset=".268" stop-color="#ffee4c"/><stop id="stop4180" offset=".452" stop-color="#ffe643"/><stop id="stop4182" offset=".612" stop-color="#ffd834"/><stop id="stop4184" offset=".757" stop-color="#ffc41e"/><stop id="stop4186" offset=".892" stop-color="#ffab02"/><stop id="stop4188" offset=".902" stop-color="#ffa900"/><stop id="stop4190" offset=".949" stop-color="#ffa000"/><stop id="stop4192" offset="1" stop-color="#ff9100"/></linearGradient><linearGradient id="linearGradient9466" x1="148.04" x2="295.305" y1="172.064" y2="215.259" gradientUnits="userSpaceOnUse" xlink:href="#linearGradient9464"/></defs><path id="path4247" fill="url(#linear-gradient-6)" stroke-width=".233" d="m 141.24685,197.96417 c 28.73902,-15.11923 48.64844,-39.81758 54.43565,-74.47882 0,0 -3.48074,17.558 -15.75085,31.85184 8.57745,-15.38558 15.52491,-36.06685 13.56629,-61.333317 C 190.88413,60.279071 176.43812,37.035259 171.09197,27.62448 162.99197,13.365499 161.45581,1.6704889 162.0067,-0.37777105 156.20879,6.0896789 137.6743,28.814513 142.65349,57.19421 c 4.66487,26.588433 20.76873,40.672134 27.18364,65.95987 11.81853,46.5862 -28.59028,74.81009 -28.59028,74.81009 z"/><path id="path4237" fill="url(#radial-gradient-7)" stroke-width=".229" d="M 162.00586 -0.37695312 C 162.00586 -0.37695312 129.92201 20.096405 130.16211 56.109375 C 130.4022 92.122349 151.03009 99.777237 154.36328 138.69922 C 156.79786 167.13028 141.72906 189.49252 123.4375 202.75977 L 123.55078 202.73633 L 129.79102 212.22656 L 139.71289 202.30664 C 139.28109 202.35864 138.84623 202.40957 138.39648 202.45117 C 139.60713 201.68874 140.80561 200.87244 141.99609 200.02344 L 147.71094 194.31055 L 151.50977 191.90234 C 152.63268 190.75644 153.73489 189.56709 154.80273 188.31055 C 167.60903 173.23987 188.05677 147.8146 188.86328 112.32227 C 189.501 84.2704 184.08194 66.423068 175.98047 47.767578 C 162.82266 17.471647 160.25118 5.3835964 162.00586 -0.37695312 z M 90.496094 216.11133 C 90.184245 216.13698 89.864922 216.17888 89.556641 216.19727 C 89.607798 216.20529 90.157418 216.27314 90.320312 216.29688 L 90.496094 216.11133 z"/></svg>